<svg xmlns="http://www.w3.org/2000/svg" viewBox="0 0 31.36 37.8"><title>资源 27</title><g id="图层_2" data-name="图层 2"><g id="图层_1-2" data-name="图层 1"><path d="M11.23,36.72.6,23.11a2.8,2.8,0,0,1,.48-3.94L17.81,6.1,30.17,21.92a2.81,2.81,0,0,1-.48,3.95L15.17,37.21A2.81,2.81,0,0,1,11.23,36.72ZM17.81,6.1,13.49.56A1.48,1.48,0,0,0,11.43.31L9.82,1.57a1.47,1.47,0,0,0-.26,2.06l4.33,5.53Zm6.71,16.68L16.64,12.69a.94.94,0,0,0-1.32-.16l-11,8.62a.94.94,0,0,0-.16,1.32L5.31,24a1,1,0,0,0,.75.36l17.73-.07A.94.94,0,0,0,24.52,22.78Z"/><path d="M28.23,35.43h2.69a.37.37,0,0,0,.35-.5l-1.69-4.75h0l-1.7,4.75A.38.38,0,0,0,28.23,35.43Z"/><circle cx="29.58" cy="35.43" r="1.79"/></g></g></svg>